<svg width="5825" height="4411" viewBox="0 0 5825 4411" fill="none" xmlns="http://www.w3.org/2000/svg">
<path d="M2.24609 1452.14L1274.91 2.23975" stroke="#FEFEFE" stroke-miterlimit="2.61313" stroke-linecap="round" stroke-linejoin="round"/>
<path d="M2.68994 1481.47L1245.74 73.1045" stroke="#FEFEFE" stroke-miterlimit="2.61313" stroke-linecap="round" stroke-linejoin="round"/>
<path d="M2.24609 1508.32L1218.36 140.624" stroke="#FEFEFE" stroke-miterlimit="2.61313" stroke-linecap="round" stroke-linejoin="round"/>
<path d="M2.24609 1533.18L1192.23 209.569" stroke="#FEFEFE" stroke-miterlimit="2.61313" stroke-linecap="round" stroke-linejoin="round"/>
<path d="M2.24609 1559.25L1160.99 280.546" stroke="#FEFEFE" stroke-miterlimit="2.61313" stroke-linecap="round" stroke-linejoin="round"/>
<path d="M2.24609 1585.34L1130.85 352.619" stroke="#FEFEFE" stroke-miterlimit="2.61313" stroke-linecap="round" stroke-linejoin="round"/>
<path d="M2.24609 1612.58L1103.62 422.604" stroke="#FEFEFE" stroke-miterlimit="2.61313" stroke-linecap="round" stroke-linejoin="round"/>
<path d="M2.24609 1637.63L1076.77 492.446" stroke="#FEFEFE" stroke-miterlimit="2.61313" stroke-linecap="round" stroke-linejoin="round"/>
<path d="M2.979 1665.8L1049.87 559.524" stroke="#FEFEFE" stroke-miterlimit="2.61313" stroke-linecap="round" stroke-linejoin="round"/>
<path d="M2.67871 1694.79L1018.29 630.97" stroke="#FEFEFE" stroke-miterlimit="2.61313" stroke-linecap="round" stroke-linejoin="round"/>
<path d="M2.24609 1721.82L989.526 701.641" stroke="#FEFEFE" stroke-miterlimit="2.61313" stroke-linecap="round" stroke-linejoin="round"/>
<path d="M2.24609 1753.04L967.755 770.02" stroke="#FEFEFE" stroke-miterlimit="2.61313" stroke-linecap="round" stroke-linejoin="round"/>
<path d="M2.24609 1777.66L936.666 838.231" stroke="#FEFEFE" stroke-miterlimit="2.61313" stroke-linecap="round" stroke-linejoin="round"/>
<path d="M2.24609 1806.57L903.684 909.858" stroke="#FEFEFE" stroke-miterlimit="2.61313" stroke-linecap="round" stroke-linejoin="round"/>
<path d="M2.24609 1838.97L877.578 977.135" stroke="#FEFEFE" stroke-miterlimit="2.61313" stroke-linecap="round" stroke-linejoin="round"/>
<path d="M2.24609 1870.4L850.526 1046.92" stroke="#FEFEFE" stroke-miterlimit="2.61313" stroke-linecap="round" stroke-linejoin="round"/>
<path d="M2.24609 1901.29L823.891 1120.54" stroke="#FEFEFE" stroke-miterlimit="2.61313" stroke-linecap="round" stroke-linejoin="round"/>
<path d="M2.24609 1932.6L791.596 1193.69" stroke="#FEFEFE" stroke-miterlimit="2.61313" stroke-linecap="round" stroke-linejoin="round"/>
<path d="M2.24609 1970.15L763.672 1266.98" stroke="#FEFEFE" stroke-miterlimit="2.61313" stroke-linecap="round" stroke-linejoin="round"/>
<path d="M2.24609 2001.99L738.391 1333.21" stroke="#FEFEFE" stroke-miterlimit="2.61313" stroke-linecap="round" stroke-linejoin="round"/>
<path d="M2.24609 2039.19L708.635 1410.19" stroke="#FEFEFE" stroke-miterlimit="2.61313" stroke-linecap="round" stroke-linejoin="round"/>
<path d="M2.24609 2074.86L676.748 1489.62" stroke="#FEFEFE" stroke-miterlimit="2.61313" stroke-linecap="round" stroke-linejoin="round"/>
<path d="M2.24609 2113.88L655.432 1555.16" stroke="#FEFEFE" stroke-miterlimit="2.61313" stroke-linecap="round" stroke-linejoin="round"/>
<path d="M2.24609 2147.44L638.312 1624.92" stroke="#FEFEFE" stroke-miterlimit="2.61313" stroke-linecap="round" stroke-linejoin="round"/>
<path d="M2.24609 2188.47L610.8 1696.45" stroke="#FEFEFE" stroke-miterlimit="2.61313" stroke-linecap="round" stroke-linejoin="round"/>
<path d="M2.24609 2224.77L587.667 1769.35" stroke="#FEFEFE" stroke-miterlimit="2.61313" stroke-linecap="round" stroke-linejoin="round"/>
<path d="M2.24609 2265.94L554.459 1850.16" stroke="#FEFEFE" stroke-miterlimit="2.61313" stroke-linecap="round" stroke-linejoin="round"/>
<path d="M2.24609 2310.72L526.53 1916.91" stroke="#FEFEFE" stroke-miterlimit="2.61313" stroke-linecap="round" stroke-linejoin="round"/>
<path d="M2.24609 2356.33L505.54 1992.33" stroke="#FEFEFE" stroke-miterlimit="2.61313" stroke-linecap="round" stroke-linejoin="round"/>
<path d="M2.24609 2385.27L460.46 2077.12" stroke="#FEFEFE" stroke-miterlimit="2.61313" stroke-linecap="round" stroke-linejoin="round"/>
<path d="M2.24609 2428.04L447.56 2140.77" stroke="#FEFEFE" stroke-miterlimit="2.61313" stroke-linecap="round" stroke-linejoin="round"/>
<path d="M2.24609 2473.5L424.499 2217.38" stroke="#FEFEFE" stroke-miterlimit="2.61313" stroke-linecap="round" stroke-linejoin="round"/>
<path d="M1274.91 2.23975L3580.15 1369.81L4534.24 721.162L5574.73 1611.96L5822.75 1498.01" stroke="#FEFEFE" stroke-miterlimit="2.61313" stroke-linecap="round" stroke-linejoin="round"/>
<path d="M1245.74 73.1045L2190.84 564.444L3570.69 1383.02L4523.25 819.173L5572.5 1633.86L5822.75 1544.66" stroke="#FEFEFE" stroke-miterlimit="2.61313" stroke-linecap="round" stroke-linejoin="round"/>
<path d="M1218.36 140.624L2177.04 572.236L3550.53 1403.89L4516.64 914.016L4662.45 1034.09L5271.15 1427.47L5561.56 1651.36L5822.75 1575.98" stroke="#FEFEFE" stroke-miterlimit="2.61313" stroke-linecap="round" stroke-linejoin="round"/>
<path d="M1192.23 209.569L2152.9 580.166L3534.23 1419.28L4504.28 1006.82L4649.47 1125.26L5303.09 1479.1L5557.7 1675.4L5822.75 1613.43" stroke="#FEFEFE" stroke-miterlimit="2.61313" stroke-linecap="round" stroke-linejoin="round"/>
<path d="M1160.99 280.546L2134.92 583.964L3520.8 1441.39L4496.6 1099.88L4641.06 1220.62L5303.1 1500.23L5555.49 1697.81L5822.75 1645.89" stroke="#FEFEFE" stroke-miterlimit="2.61313" stroke-linecap="round" stroke-linejoin="round"/>
<path d="M1130.85 352.619L2125.72 593.175L3498.54 1452.68L4481.29 1195.64L4634.6 1316.7L5298.47 1528.52L5550.37 1714.79L5822.75 1678.07" stroke="#FEFEFE" stroke-miterlimit="2.61313" stroke-linecap="round" stroke-linejoin="round"/>
<path d="M1103.62 422.604L2097.74 592.807L3479.95 1471.27L4467.54 1288.35L4626.91 1413.44L5291.62 1551.31L5544.81 1735.59L5822.75 1710.73" stroke="#FEFEFE" stroke-miterlimit="2.61313" stroke-linecap="round" stroke-linejoin="round"/>
<path d="M1076.77 492.446L2079.21 597.715L3465.57 1487.57L4460.37 1386.22L4617.51 1505.24L5282.38 1573.12L5537.62 1754.18L5822.76 1742.98" stroke="#FEFEFE" stroke-miterlimit="2.61313" stroke-linecap="round" stroke-linejoin="round"/>
<path d="M1049.87 559.524L2061.16 604.478L3454.75 1506.44L4448.78 1481.67L4609.3 1597.16L5272.86 1597.49L5532.67 1776.6L5811.84 1782.71" stroke="#FEFEFE" stroke-miterlimit="2.61313" stroke-linecap="round" stroke-linejoin="round"/>
<path d="M1018.29 630.97L2043.33 612.238L3440.04 1524.43L4441.45 1572.39L4596.26 1690.17L5266.99 1620.92L5532.49 1800.95L5822.75 1817.11" stroke="#FEFEFE" stroke-miterlimit="2.61313" stroke-linecap="round" stroke-linejoin="round"/>
<path d="M989.525 701.641L2023.06 612.61L3422.58 1542.32L4436.58 1673.61L4594.07 1785.74L5257.43 1640.3L5524.71 1817.3L5822.75 1855.84" stroke="#FEFEFE" stroke-miterlimit="2.61313" stroke-linecap="round" stroke-linejoin="round"/>
<path d="M967.755 770.019L2004.97 620.021L3407.72 1556.3L4424.69 1762.21L4580.68 1880.49L5245.68 1665.07L5526.25 1838.89L5822.76 1891.14" stroke="#FEFEFE" stroke-miterlimit="2.61313" stroke-linecap="round" stroke-linejoin="round"/>
<path d="M936.666 838.231L1981.2 623.46L3398.06 1576.3L4405.47 1854.8L4568.75 1975.97L5240.36 1689.85L5524.66 1864.47L5822.75 1931.8" stroke="#FEFEFE" stroke-miterlimit="2.61313" stroke-linecap="round" stroke-linejoin="round"/>
<path d="M903.684 909.858L1960.07 627.806L3380.56 1594.42L4402.69 1953.1L4564.39 2071.91L5233.87 1712.97L5512.97 1879.1L5822.75 1966.68" stroke="#FEFEFE" stroke-miterlimit="2.61313" stroke-linecap="round" stroke-linejoin="round"/>
<path d="M877.578 977.135L1939.79 633.221L3366.51 1609.28L4386.95 2041.69L4552.02 2164.64L5222.18 1731.06L5507.42 1902.78L5822.75 2005.5" stroke="#FEFEFE" stroke-miterlimit="2.61313" stroke-linecap="round" stroke-linejoin="round"/>
<path d="M850.526 1046.92L1919.62 638.604L3349.75 1628.73L4366.55 2133.22L4544.14 2257.99L5216.12 1754.57L5509.92 1925.56L5822.75 2046.23" stroke="#FEFEFE" stroke-miterlimit="2.61313" stroke-linecap="round" stroke-linejoin="round"/>
<path d="M823.892 1120.53L1899.94 646.124L3340.51 1651.19L4364 2229L4533.01 2351.64L5208.71 1777.78L5501.32 1943.02L5822.76 2086.61" stroke="#FEFEFE" stroke-miterlimit="2.61313" stroke-linecap="round" stroke-linejoin="round"/>
<path d="M791.596 1193.69L1883.44 653.4L3326.92 1670.52L4530.44 2445.87L5199.18 1798.35L5822.75 2123.51" stroke="#FEFEFE" stroke-miterlimit="2.61313" stroke-linecap="round" stroke-linejoin="round"/>
<path d="M763.672 1266.98L1867.23 660.546L4516.15 2540.5L5187.13 1824.8L5822.75 2160.92" stroke="#FEFEFE" stroke-miterlimit="2.61313" stroke-linecap="round" stroke-linejoin="round"/>
<path d="M738.391 1333.21L1841.8 726.841L4404.65 2571.45L5190.53 1871.96L5822.75 2207.56" stroke="#FEFEFE" stroke-miterlimit="2.61313" stroke-linecap="round" stroke-linejoin="round"/>
<path d="M708.635 1410.19L1829.51 796.06L4291.55 2593.86L5191.15 1922.66L5822.75 2243.65" stroke="#FEFEFE" stroke-miterlimit="2.61313" stroke-linecap="round" stroke-linejoin="round"/>
<path d="M676.748 1489.62L1813.32 864.189L4176.49 2620.16L5196.53 1967.2L5822.75 2286.68" stroke="#FEFEFE" stroke-miterlimit="2.61313" stroke-linecap="round" stroke-linejoin="round"/>
<path d="M655.433 1555.16L1801.64 932.928L4075.8 2649.54L5204.68 2015.97L5822.75 2327.97" stroke="#FEFEFE" stroke-miterlimit="2.61313" stroke-linecap="round" stroke-linejoin="round"/>
<path d="M638.312 1624.92L1788.09 1002.22L3952.64 2673.26L5202.68 2062.17L5822.75 2372.94" stroke="#FEFEFE" stroke-miterlimit="2.61313" stroke-linecap="round" stroke-linejoin="round"/>
<path d="M610.8 1696.45L1780.31 1068.52L3847.89 2701.02L5212.3 2114.22L5822.75 2414.3" stroke="#FEFEFE" stroke-miterlimit="2.61313" stroke-linecap="round" stroke-linejoin="round"/>
<path d="M587.667 1769.35L1763.91 1138.97L3736.09 2732.64L5217.37 2154.03L5822.76 2450.56" stroke="#FEFEFE" stroke-miterlimit="2.61313" stroke-linecap="round" stroke-linejoin="round"/>
<path d="M554.459 1850.16L1748.71 1206.58L3625.6 2757.24L5213.3 2203.81L5822.75 2492.43" stroke="#FEFEFE" stroke-miterlimit="2.61313" stroke-linecap="round" stroke-linejoin="round"/>
<path d="M526.53 1916.91L1736.39 1278.75L3514.07 2787.2L5223.75 2250.24L5822.75 2537.35" stroke="#FEFEFE" stroke-miterlimit="2.61313" stroke-linecap="round" stroke-linejoin="round"/>
<path d="M505.54 1992.33L1724.14 1346.85L3396.6 2817.54L5223.81 2299.7L5822.75 2575.98" stroke="#FEFEFE" stroke-miterlimit="2.61313" stroke-linecap="round" stroke-linejoin="round"/>
<path d="M460.459 2077.12L1713.03 1415.43L3289.69 2840.88L5230.96 2349.5L5822.75 2619.41" stroke="#FEFEFE" stroke-miterlimit="2.61313" stroke-linecap="round" stroke-linejoin="round"/>
<path d="M447.56 2140.77L1697.26 1481.71L3180.23 2866.72L5234.28 2395.27L5822.75 2658.94" stroke="#FEFEFE" stroke-miterlimit="2.61313" stroke-linecap="round" stroke-linejoin="round"/>
<path d="M424.499 2217.38L1689.26 1554.59L3066.25 2892.01L5234.56 2440.54L5822.75 2701.03" stroke="#FEFEFE" stroke-miterlimit="2.61313" stroke-linecap="round" stroke-linejoin="round"/>
<path d="M2.24609 2524.1L343.441 2323.87L442.525 2263.2L575.987 2198.48L1675.25 1622.42L2950.06 2918.74L5240.74 2488.36L5822.75 2742.57" stroke="#FEFEFE" stroke-miterlimit="2.61313" stroke-linecap="round" stroke-linejoin="round"/>
<path d="M2.24609 2561.76L1664.62 1687.45L2844.05 2942.61L5251.7 2534.02L5822.75 2789.83" stroke="#FEFEFE" stroke-miterlimit="2.61313" stroke-linecap="round" stroke-linejoin="round"/>
<path d="M2.24609 2615.61L1649.83 1755.76L2729.91 2972.51L5248.05 2583.98L5822.75 2827.64" stroke="#FEFEFE" stroke-miterlimit="2.61313" stroke-linecap="round" stroke-linejoin="round"/>
<path d="M2.24609 2661.03L1635.12 1823.34L2620.08 2997.4L5250.54 2633.99L5822.75 2873.41" stroke="#FEFEFE" stroke-miterlimit="2.61313" stroke-linecap="round" stroke-linejoin="round"/>
<path d="M2.24609 2714.45L1618.74 1894.38L2500.08 3019.33L5257.76 2680.24L5811.47 2911.91" stroke="#FEFEFE" stroke-miterlimit="2.61313" stroke-linecap="round" stroke-linejoin="round"/>
<path d="M2.24609 2764.7L1553.35 1976.99L2469.74 3034.11L4678.33 2816.14L5240.91 2749.82L5822.75 2956.84" stroke="#FEFEFE" stroke-miterlimit="2.61313" stroke-linecap="round" stroke-linejoin="round"/>
<path d="M2.24609 2817.46L1481 2054.35L2441.27 3056.2L3932.55 2939.82L4391.32 2905.99L4707.29 2878.45L4880.39 2855.86L5223.8 2815.08L5822.75 3014.02" stroke="#FEFEFE" stroke-miterlimit="2.61313" stroke-linecap="round" stroke-linejoin="round"/>
<path d="M2.24609 2868.12L1415.52 2136.06L2405.1 3072.8L3879.02 2993.12L4556.77 2958.49L5175.44 2883.79L5249.3 2884.77L5822.75 3065.36" stroke="#FEFEFE" stroke-miterlimit="2.61313" stroke-linecap="round" stroke-linejoin="round"/>
<path d="M2.24609 2917.42L99.8838 2872.76L243.687 2802.37L451.737 2690.68L708.74 2557.56L1351.25 2213.3L1843.34 2624.89L2149.3 2880.41L2374.13 3093.24L3352.81 3059.32L4372.61 3025.21H4528.51L4754.2 2994.95L5167.27 2952.12L5248.2 2953.43L5393.43 2989.31L5822.75 3113.79" stroke="#FEFEFE" stroke-miterlimit="2.61313" stroke-linecap="round" stroke-linejoin="round"/>
<path d="M2.24609 2971.51L143.371 2901.34L268.426 2838.81L566.43 2679.14L1273.98 2298.47L1860.71 2723.02L2062.66 2872.98L2171.28 2955.61L2350.29 3108.63L2820.09 3105.18H3168.12L3954.85 3090.64L4543.87 3085.96L5162.7 3019.61L5272.42 3030.32L5822.75 3164.14" stroke="#FEFEFE" stroke-miterlimit="2.61313" stroke-linecap="round" stroke-linejoin="round"/>
<path d="M2.24609 3020.42L1209.35 2380.9L1860.91 2795.78L2059.21 2925.3L2142.17 2983.99L2322.26 3131.73L2731.54 3134.08L3193.48 3135.61L3812.59 3144.74L4377.82 3151.14C4517.28 3153.17 4608.83 3147.21 4740.3 3125.29L5082.77 3091.2H5206.21L5333.7 3109.41L5822.76 3217.26" stroke="#FEFEFE" stroke-miterlimit="2.61313" stroke-linecap="round" stroke-linejoin="round"/>
<path d="M2.24609 3069.03L1142.12 2461.58L1472.09 2646.61L1764.37 2805.78L1957.19 2919.04L2016.87 2952.71L2084.2 2989.45L2137.76 3030.77L2286.4 3143.43L3805.36 3190.57L4331.34 3206.87H4494.26L4692.09 3197.56L4992.32 3169.62L5177.3 3157.28L5364.66 3176.02L5822.75 3275.07" stroke="#FEFEFE" stroke-miterlimit="2.61313" stroke-linecap="round" stroke-linejoin="round"/>
<path d="M2.24609 3120.99L1068.42 2538.9L1998.17 2986.26L2253.35 3162.28L4352.94 3272.38L4476.04 3282.34L4595.72 3268.26L4857.96 3244.02L5041.83 3225.39H5183.81L5349.07 3241.69L5822.75 3329.06" stroke="#FEFEFE" stroke-miterlimit="2.61313" stroke-linecap="round" stroke-linejoin="round"/>
<path d="M2.24609 3168.48L1000.4 2623.72L1902.92 2995.05L1961.79 3020.21L2007.43 3042.06L2083.56 3090.2L2227.87 3185.46L3012.66 3237.14L3715.05 3289.78L4388.93 3336.99H4475.06L4651.98 3330.01L5114.92 3298.31L5224.68 3295.63L5366.56 3311.7L5626.23 3346.5L5822.75 3381.7" stroke="#FEFEFE" stroke-miterlimit="2.61313" stroke-linecap="round" stroke-linejoin="round"/>
<path d="M2.24609 3217.42L935.375 2702.66L1878.77 3028.42L1924.02 3045.73L1967.95 3067.03L2192.89 3198.82L4177.92 3381.69L4346.54 3404.27L4431.03 3409.56L4563.06 3398.99L4778.15 3378.75L5021.07 3366.6L5127.57 3358.75L5209.29 3360.51L5319.25 3368.61L5822.75 3438.15" stroke="#FEFEFE" stroke-miterlimit="2.61313" stroke-linecap="round" stroke-linejoin="round"/>
<path d="M2.24609 3265.18L864.614 2782.76L1803.96 3051.29L1893.76 3074.65L1914.6 3083.91L2161.72 3218.3L3340.28 3355.47L4085.56 3439.91L4304.32 3463.82L4393.11 3476.07H4448.22L4608.96 3463.82L4909.61 3438.98L5131.43 3430.18L5340.94 3438.98L5486.76 3450.01L5674.32 3472.81L5822.75 3493.56" stroke="#FEFEFE" stroke-miterlimit="2.61313" stroke-linecap="round" stroke-linejoin="round"/>
<path d="M2.24609 3311.64L795.109 2863.25L1659.1 3060.63L1765.6 3081.47L1824.64 3094.21L1868.63 3103.47L1941.56 3139.36L2067.74 3201.88L2141.83 3237.78L2597.61 3295.51L3250.49 3385.99L3872.85 3466.35L4307.48 3533.98L4374.36 3540.86H4450.25L4640.63 3522.22L4929.41 3505.88L5122.35 3495.41L5252.01 3498.88L5422.2 3506.99L5822.75 3542.35" stroke="#FEFEFE" stroke-miterlimit="2.61313" stroke-linecap="round" stroke-linejoin="round"/>
<path d="M2.24609 3356.19L720.875 2946.52L1159.49 3018.14L1746.84 3118.42L1817.98 3131.17L1846.17 3138.22L1927.72 3174.47L2110.38 3256.23L2668.44 3340.27L4200.3 3579.74L4328.13 3603.83L4392.49 3607.88L4524.18 3598.69L4824.31 3577.25L5152.25 3565.72L5402.31 3571L5652.37 3588.62L5822.75 3600.24" stroke="#FEFEFE" stroke-miterlimit="2.61313" stroke-linecap="round" stroke-linejoin="round"/>
<path d="M2.24609 3401.96L659.048 3026.56L1495.16 3126.11L1683.31 3140.55L1763.21 3149.88L1801.89 3159.08L1872.52 3188.04L2065.45 3267.68L2103.26 3278.35L2637.96 3370.22L3219.06 3468.73L4126.86 3630.91L4345.05 3672.7H4399.65L4488.88 3663.38L4764.88 3648.1L4963.9 3637.53L5155.88 3630.48L5381.32 3635.19L5557.45 3636.96L5723 3649.29H5822.75" stroke="#FEFEFE" stroke-miterlimit="2.61313" stroke-linecap="round" stroke-linejoin="round"/>
<path d="M2.24609 3451.63L589.877 3105.85L1018.38 3138.99L1563.08 3170.96L1722.89 3178.95L1746.37 3183.81L1789.27 3195.2L1975.79 3263.52L2093.86 3296.51L2199.25 3318.52L2408.87 3360.22L3021.51 3479.81L4121.16 3696.04L4275.92 3730.7L4334.05 3735.99H4434.44L4571.83 3725.42L4994.77 3699.15L5298.6 3697.13H5495.09L5822.75 3709.68" stroke="#FEFEFE" stroke-miterlimit="2.61313" stroke-linecap="round" stroke-linejoin="round"/>
<path d="M2.24609 3497.33L520.002 3186.55L1712.82 3208.92L2037.91 3312.48L2597.27 3430.18L3519.37 3632.39L4288.75 3799.01L4324.26 3803.62L4799.89 3780.71L5443.93 3763.94H5822.75" stroke="#FEFEFE" stroke-miterlimit="2.61313" stroke-linecap="round" stroke-linejoin="round"/>
<path d="M2.24609 3538.42L447.015 3271.75L1283.23 3246L1680.3 3234.46L1913.01 3304.76L2067.11 3346.07L2198.05 3373.27L2953.07 3549.91L3471.29 3673.89L4074.85 3815.88L4265.53 3862.61L4282.94 3866.17L4319.8 3867.32L4424.62 3863.29L4962.68 3841.36L5391.11 3828.53H5682.2H5822.75" stroke="#FEFEFE" stroke-miterlimit="2.61313" stroke-linecap="round" stroke-linejoin="round"/>
<path d="M2.24609 3581.06L380.38 3352.39L1569.01 3268.26H1632.96L1687.59 3274.93L1810.16 3305.57L2101.93 3380.2L2935.29 3590.3L3905.15 3837.21L4235.29 3925.16L4261.94 3932.11L4296.7 3934.43L4383.59 3929.79L4572.43 3922.84L5065.57 3903.23L5432.07 3892.65L5652.58 3881.42H5822.75" stroke="#FEFEFE" stroke-miterlimit="2.61313" stroke-linecap="round" stroke-linejoin="round"/>
<path d="M2.24609 3647.27L389.468 3425.85L951.083 3388.56L1633.87 3341.94L1696.79 3351.27L2589.32 3565.69L3756.13 3848.44L4226.28 3960.04L4278.97 3978.28L4801.79 3958.01L5249.95 3940.66L5822.75 3923.79" stroke="#FEFEFE" stroke-miterlimit="2.61313" stroke-linecap="round" stroke-linejoin="round"/>
<path d="M2.24609 3710.96L394.586 3498.85L1368.72 3440.58L1599.44 3426.6L1678.67 3428.93L1862.78 3468.55L2861.27 3691.9L4265.91 4012.58L4366.13 4019.58L5822.75 3963.18" stroke="#FEFEFE" stroke-miterlimit="2.61313" stroke-linecap="round" stroke-linejoin="round"/>
<path d="M2.24609 3777.64L397.265 3574.98L1317.83 3519.04L1597.49 3500.39H1683.72L1802.58 3528.37L2821.02 3749.8L4128.06 4022.8L4283.51 4057.64L4747.17 4052.28L5822.75 4014.45" stroke="#FEFEFE" stroke-miterlimit="2.61313" stroke-linecap="round" stroke-linejoin="round"/>
<path d="M2.24609 3836.74L415.901 3648.15L1510.28 3588.22L1594.86 3581.17L1681.21 3584.69L1816.91 3612.89L2135.88 3672.82L3814.82 4002.34L4279.47 4096.79H4544.59L5042.22 4079.59L5736.19 4060.24H5822.75" stroke="#FEFEFE" stroke-miterlimit="2.61313" stroke-linecap="round" stroke-linejoin="round"/>
<path d="M2.24609 3901.97L423.503 3721.48L1636.02 3656.27L1711.8 3666.84L2030.8 3723.25L2339.21 3784.94L4251.63 4135.15L4307.66 4142.78L4465.74 4136.7L5822.75 4103.77" stroke="#FEFEFE" stroke-miterlimit="2.61313" stroke-linecap="round" stroke-linejoin="round"/>
<path d="M2.24609 3960.93L421.113 3800.78L1316.96 3756.19L1527.75 3744.02L1612.88 3737.94H1677.73L1758.81 3750.11L2004.05 3792.68L3316.22 4014.72L4264.54 4176.55L4308.1 4184.1H4488.02L5390.71 4155.91L5822.75 4148.21" stroke="#FEFEFE" stroke-miterlimit="2.61313" stroke-linecap="round" stroke-linejoin="round"/>
<path d="M2.24609 4025.29L439.723 3872.52L1637.8 3817.8H1705.24L1861.57 3842.32L3556.35 4107.01L4251.45 4214.72L4306.78 4221.77L4458.71 4223.1L4771.92 4212.44L5822.75 4195.13" stroke="#FEFEFE" stroke-miterlimit="2.61313" stroke-linecap="round" stroke-linejoin="round"/>
<path d="M2.24609 4088.97L433.838 3949.46L1000.95 3923.4L1543.55 3900.41H1683.02L1748.75 3905.38L1993.3 3935.52L3538.36 4156.61L4255.46 4259.23L4315.44 4268.56L4376.75 4265.89L4496.71 4263.23L5822.75 4233.62" stroke="#FEFEFE" stroke-miterlimit="2.61313" stroke-linecap="round" stroke-linejoin="round"/>
<path d="M2.24609 4149.46L442.799 4019.45L1230.61 3991.9L1654.16 3973.32H1708.81L1782.85 3983.9L1936.21 4001.53L3460.52 4197.62L4261.86 4298.83L4322.68 4307.43L4431.52 4310.5L4544.95 4304.36L4718.17 4301.3L5822.75 4282.6" stroke="#FEFEFE" stroke-miterlimit="2.61313" stroke-linecap="round" stroke-linejoin="round"/>
<path d="M2.24609 4209.75L453.344 4095.5L1162.09 4072.18L1630.7 4055.86L1695.98 4053.52L1747.27 4060.52L2689.15 4163.12L4214.92 4339.81L4266.59 4342.71L4309.94 4347.75L4386.54 4346.74H4635.51H4958.05L5568.37 4333.9H5822.75" stroke="#FEFEFE" stroke-miterlimit="2.61313" stroke-linecap="round" stroke-linejoin="round"/>
<path d="M2.24609 4269.2L455.176 4168.86L876.43 4152.86L1303.02 4146.2L1692.93 4134.65H1747.58L1820.91 4142.65L2059.53 4167.98L2403.47 4201.31L3347.12 4294.04L4053.2 4364.15L4198 4380.24L4298.07 4389.2L4373.67 4390.21H4550.09L4794.04 4387.18L5822.75 4373.72" stroke="#FEFEFE" stroke-miterlimit="2.61313" stroke-linecap="round" stroke-linejoin="round"/>
<path d="M2.24609 4328.99L478.607 4240.82L1176.83 4221.42L1593.98 4211.81H1675.6H1785.19L2053.35 4239.8L3275.62 4337.61L4037.83 4408.76" stroke="#FEFEFE" stroke-miterlimit="2.61313" stroke-linecap="round" stroke-linejoin="round"/>
<path d="M2.24609 4389.44L494.327 4307.86L760.26 4303.97H1240.27L1642.52 4287.88H1816.82L2310.25 4333.47L3403.66 4408.76" stroke="#FEFEFE" stroke-miterlimit="2.61313" stroke-linecap="round" stroke-linejoin="round"/>
<path d="M345.329 4408.76L626.903 4380.8H935.296H1401.9H1812.2H1991.87H2120.59L2284.17 4408.76H2445.08" stroke="#FEFEFE" stroke-miterlimit="2.61313" stroke-linecap="round" stroke-linejoin="round"/>
</svg>
